<svg width="48" height="48" viewBox="0 0 48 48" fill="none" xmlns="http://www.w3.org/2000/svg">
<path d="M9 8.99997C9 7.40867 9.63214 5.88255 10.7574 4.75733C11.8826 3.63211 13.4087 2.99997 15 2.99997C16.5913 2.99997 18.1174 3.63211 19.2426 4.75733C20.3679 5.88255 21 7.40867 21 8.99997C21 10.5913 20.3679 12.1174 19.2426 13.2426C18.1174 14.3678 16.5913 15 15 15C13.4087 15 11.8826 14.3678 10.7574 13.2426C9.63214 12.1174 9 10.5913 9 8.99997ZM15 5.99997C14.2044 5.99997 13.4413 6.31604 12.8787 6.87865C12.3161 7.44126 12 8.20432 12 8.99997C12 9.79562 12.3161 10.5587 12.8787 11.1213C13.4413 11.6839 14.2044 12 15 12C15.7956 12 16.5587 11.6839 17.1213 11.1213C17.6839 10.5587 18 9.79562 18 8.99997C18 8.20432 17.6839 7.44126 17.1213 6.87865C16.5587 6.31604 15.7956 5.99997 15 5.99997ZM29.337 13.752C28.7085 13.2726 28.1809 12.6737 27.7845 11.9897C27.3882 11.3058 27.1309 10.5502 27.0275 9.76653C26.924 8.98283 26.9765 8.18642 27.1818 7.42305C27.3871 6.65969 27.7412 5.94442 28.2238 5.31834C28.7064 4.69226 29.308 4.16772 29.9939 3.77485C30.6799 3.38198 31.4367 3.12853 32.2209 3.02907C33.0051 2.92961 33.8013 2.98609 34.5636 3.19527C35.3259 3.40444 36.0394 3.7622 36.663 4.24797C37.8909 5.23018 38.6841 6.65516 38.872 8.21628C39.06 9.77741 38.6275 11.3499 37.6678 12.5955C36.7081 13.841 35.2978 14.66 33.7404 14.8763C32.1829 15.0926 30.5998 14.6889 29.337 13.752ZM33 5.99997C32.2044 5.99997 31.4413 6.31604 30.8787 6.87865C30.3161 7.44126 30 8.20432 30 8.99997C30 9.79562 30.3161 10.5587 30.8787 11.1213C31.4413 11.6839 32.2044 12 33 12C33.7956 12 34.5587 11.6839 35.1213 11.1213C35.6839 10.5587 36 9.79562 36 8.99997C36 8.20432 35.6839 7.44126 35.1213 6.87865C34.5587 6.31604 33.7956 5.99997 33 5.99997ZM7.5 18H15.51C15.18 18.939 15 19.95 15 21H7.5C7.10218 21 6.72064 21.158 6.43934 21.4393C6.15804 21.7206 6 22.1021 6 22.5C6 24.951 6.975 26.769 8.514 28.005C9.222 28.575 10.071 29.034 11.031 29.37C10.326 30.1193 9.78276 31.0057 9.435 31.974C8.42738 31.5707 7.48434 31.0219 6.636 30.345C4.38 28.53 3 25.848 3 22.5C3 21.3065 3.47411 20.1619 4.31802 19.318C5.16193 18.4741 6.30653 18 7.5 18ZM18.804 18C18.0084 19.3788 17.793 21.0173 18.2054 22.5549C18.6178 24.0925 19.6241 25.4033 21.003 26.199C22.3819 26.9946 24.0203 27.2099 25.5579 26.7975C27.0955 26.3851 28.4064 25.3788 29.202 24C29.9977 22.6211 30.213 20.9827 29.8006 19.445C29.3882 17.9074 28.3819 16.5966 27.003 15.801C25.6241 15.0053 23.9857 14.79 22.4481 15.2024C20.9105 15.6148 19.5996 16.6211 18.804 18ZM23.328 18.075C23.7676 17.9757 24.2238 17.9764 24.663 18.077C25.1023 18.1777 25.5133 18.3757 25.8658 18.6564C26.2183 18.9372 26.5032 19.2936 26.6995 19.6992C26.8958 20.1048 26.9985 20.5493 27 21C27 21.232 26.975 21.456 26.925 21.672C26.8046 22.1937 26.5469 22.6737 26.1784 23.0622C25.8099 23.4507 25.3442 23.7334 24.8295 23.8812C24.3149 24.0289 23.7701 24.0362 23.2517 23.9023C22.7332 23.7685 22.2601 23.4983 21.8813 23.1198C21.5026 22.7414 21.232 22.2685 21.0977 21.7502C20.9634 21.2319 20.9702 20.687 21.1175 20.1723C21.2649 19.6575 21.5472 19.1915 21.9354 18.8227C22.3236 18.4539 22.8064 18.1958 23.328 18.075ZM39.483 28.005C38.775 28.575 37.926 29.034 36.966 29.37C37.6699 30.1196 38.2121 31.0059 38.559 31.974C39.579 31.557 40.524 31.014 41.361 30.345C43.62 28.53 45 25.848 45 22.5C45 21.3065 44.5259 20.1619 43.682 19.318C42.8381 18.4741 41.6935 18 40.5 18H32.49C32.82 18.939 33 19.95 33 21H40.5C40.8978 21 41.2794 21.158 41.5607 21.4393C41.842 21.7206 42 22.1021 42 22.5C42 24.951 41.022 26.769 39.483 28.005ZM31.5 30C32.6935 30 33.8381 30.4741 34.682 31.318C35.5259 32.1619 36 33.3065 36 34.5C36 37.848 34.623 40.53 32.364 42.345C30.141 44.13 27.159 45 24 45C20.841 45 17.859 44.13 15.636 42.345C13.38 40.53 12 37.848 12 34.5C11.9984 33.9086 12.1137 33.3227 12.3393 32.776C12.5649 32.2293 12.8963 31.7326 13.3145 31.3145C13.7327 30.8963 14.2294 30.5649 14.7761 30.3393C15.3227 30.1137 15.9086 29.9984 16.5 30H31.5ZM31.5 33H16.5C16.1022 33 15.7206 33.158 15.4393 33.4393C15.158 33.7206 15 34.1021 15 34.5C15 36.951 15.975 38.769 17.514 40.005C19.092 41.271 21.36 42 24 42C26.64 42 28.908 41.271 30.486 40.005C32.025 38.769 33 36.951 33 34.5C33 34.1021 32.842 33.7206 32.5607 33.4393C32.2794 33.158 31.8978 33 31.5 33Z" fill="black"/>
</svg>
