<svg width="48" height="48" viewBox="0 0 48 48" fill="none" xmlns="http://www.w3.org/2000/svg">
<path d="M33 8.50001C35.2543 8.50001 37.4163 9.39554 39.0104 10.9896C40.6045 12.5837 41.5 14.7457 41.5 17C41.5 19.2543 40.6045 21.4164 39.0104 23.0104C37.4163 24.6045 35.2543 25.5 33 25.5H15C13.5413 25.5 12.1424 26.0795 11.1109 27.1109C10.0795 28.1424 9.5 29.5413 9.5 31C9.5 32.4587 10.0795 33.8576 11.1109 34.8891C12.1424 35.9205 13.5413 36.5 15 36.5H36.38L34.94 35.06C34.7926 34.9227 34.6744 34.7571 34.5924 34.5731C34.5105 34.3891 34.4664 34.1905 34.4628 33.9891C34.4593 33.7876 34.4963 33.5876 34.5718 33.4008C34.6472 33.214 34.7595 33.0444 34.9019 32.9019C35.0444 32.7595 35.214 32.6472 35.4008 32.5718C35.5876 32.4963 35.7876 32.4593 35.989 32.4628C36.1904 32.4664 36.3891 32.5105 36.5731 32.5924C36.7571 32.6744 36.9227 32.7926 37.06 32.94L41.06 36.94C41.3409 37.2213 41.4987 37.6025 41.4987 38C41.4987 38.3975 41.3409 38.7788 41.06 39.06L37.06 43.06C36.9227 43.2074 36.7571 43.3256 36.5731 43.4076C36.3891 43.4896 36.1904 43.5336 35.989 43.5372C35.7876 43.5407 35.5876 43.5037 35.4008 43.4283C35.214 43.3528 35.0444 43.2405 34.9019 43.0981C34.7595 42.9556 34.6472 42.786 34.5718 42.5992C34.4963 42.4124 34.4593 42.2124 34.4628 42.011C34.4664 41.8096 34.5105 41.6109 34.5924 41.4269C34.6744 41.2429 34.7926 41.0773 34.94 40.94L36.38 39.5H15C12.7457 39.5 10.5837 38.6045 8.98959 37.0104C7.39553 35.4164 6.5 33.2543 6.5 31C6.5 28.7457 7.39553 26.5837 8.98959 24.9896C10.5837 23.3955 12.7457 22.5 15 22.5H33C34.4587 22.5 35.8576 21.9205 36.8891 20.8891C37.9205 19.8576 38.5 18.4587 38.5 17C38.5 15.5413 37.9205 14.1424 36.8891 13.1109C35.8576 12.0795 34.4587 11.5 33 11.5H15.71C15.3619 12.3605 14.7253 13.0732 13.9094 13.5159C13.0935 13.9586 12.149 14.1037 11.2378 13.9264C10.3267 13.749 9.50551 13.2603 8.91513 12.544C8.32475 11.8277 8.0019 10.9283 8.0019 10C8.0019 9.07173 8.32475 8.17236 8.91513 7.45602C9.50551 6.73968 10.3267 6.25098 11.2378 6.07366C12.149 5.89634 13.0935 6.04146 13.9094 6.48413C14.7253 6.9268 15.3619 7.63948 15.71 8.50001H33Z" fill="black"/>
</svg>
